<?xml version="1.0" encoding="UTF-8"?>
<svg version="1.1" xmlns="http://www.w3.org/2000/svg" width="180" height="180">
<path d="M0 0 C0.33 0 0.66 0 1 0 C1 2.97 1 5.94 1 9 C1.63502441 8.94763184 2.27004883 8.89526367 2.92431641 8.84130859 C21.02173183 7.53755534 21.02173183 7.53755534 25.7265625 11.015625 C27.27146945 13.66177331 28.20600104 16.04703759 29 19 C29.45375 19.99 29.9075 20.98 30.375 22 C31.56661015 27.71972874 32.25245646 32.95432111 29.125 38.0625 C25.87104993 41.02933682 24.08677818 41.12135592 19.7734375 41.09765625 C18.7421875 41.09443359 17.7109375 41.09121094 16.6484375 41.08789062 C15.56820312 41.07951172 14.48796875 41.07113281 13.375 41.0625 C11.74304688 41.05573242 11.74304688 41.05573242 10.078125 41.04882812 C7.38539338 41.0370179 4.69268991 41.01908205 2 41 C2.99 45.95 2.99 45.95 4 51 C-0.52704834 46.74679958 -4.23515464 42.04095562 -7.9375 37.0625 C-8.55173828 36.27681641 -9.16597656 35.49113281 -9.79882812 34.68164062 C-14.11887212 28.84836088 -14.11887212 28.84836088 -13.54296875 24.73828125 C-12.77919922 23.38283203 -12.77919922 23.38283203 -12 22 C-11.57460937 21.15695313 -11.14921875 20.31390625 -10.7109375 19.4453125 C-9.47395833 17.296875 -8.23697917 15.1484375 -7 13 C-12.28 12.67 -17.56 12.34 -23 12 C-23 22.56 -23 33.12 -23 44 C-27.785 44.103125 -32.57 44.20625 -37.5 44.3125 C-38.99337891 44.35802002 -40.48675781 44.40354004 -42.02539062 44.45043945 C-49.53305039 44.52868631 -55.40048859 44.41457848 -61 39 C-66.9139455 31.98708511 -70.79780108 23.1317283 -75.0234375 15.03515625 C-75.59457275 13.94279663 -75.59457275 13.94279663 -76.17724609 12.82836914 C-77 11 -77 11 -77 9 C-76.13689209 9.13712402 -75.27378418 9.27424805 -74.38452148 9.41552734 C-63.93111614 10.95605822 -53.61747071 11.42097761 -43.0625 11.625 C-41.39646692 11.66331081 -39.73045086 11.70236935 -38.06445312 11.7421875 C-34.04311197 11.83670997 -30.02167942 11.92123771 -26 12 C-25.85828369 11.22197021 -25.71656738 10.44394043 -25.57055664 9.64233398 C-24.90568214 6.56319974 -24.324052 5.13968044 -22 3 C-18.78515625 2.43359375 -18.78515625 2.43359375 -15.0625 2.4375 C-13.22365234 2.40462891 -13.22365234 2.40462891 -11.34765625 2.37109375 C-8 3 -8 3 -5.55859375 5.53515625 C-5.04425781 6.34855469 -4.52992187 7.16195312 -4 8 C-2.68 5.36 -1.36 2.72 0 0 Z " fill="#FFFFFF" transform="translate(105,106)"/>
<path d="M0 0 C0.74900574 0.00141495 1.49801147 0.0028299 2.26971436 0.00428772 C4.65380912 0.00986966 7.03780878 0.0224188 9.421875 0.03515625 C11.04166531 0.04017359 12.66145709 0.04473609 14.28125 0.04882812 C18.24482812 0.05983317 22.20833545 0.07708534 26.171875 0.09765625 C25.03649292 1.19980469 25.03649292 1.19980469 23.87817383 2.32421875 C15.58319517 10.82498172 10.41476027 21.69840545 4.92504883 32.10595703 C3.89851601 34.04604471 2.85839889 35.97833938 1.81640625 37.91015625 C1.21159424 39.05097656 0.60678223 40.19179687 -0.01635742 41.3671875 C-2.70966979 45.42620993 -2.70966979 45.42620993 -5.828125 46.09765625 C-8.45361328 45.19482422 -8.45361328 45.19482422 -11.3984375 43.58984375 C-12.45933594 43.01492187 -13.52023438 42.44 -14.61328125 41.84765625 C-16.26650391 40.91953125 -16.26650391 40.91953125 -17.953125 39.97265625 C-19.06300781 39.37710938 -20.17289063 38.7815625 -21.31640625 38.16796875 C-29.29255567 33.77671475 -29.29255567 33.77671475 -31.30981445 31.21899414 C-32.07785829 28.07554954 -30.98776513 26.63809048 -29.42578125 23.8515625 C-28.58370117 22.34819336 -28.58370117 22.34819336 -27.72460938 20.81445312 C-27.11939453 19.77353516 -26.51417969 18.73261719 -25.890625 17.66015625 C-25.32021484 16.62310547 -24.74980469 15.58605469 -24.16210938 14.51757812 C-20.54890245 8.18938557 -17.27436299 3.02841923 -10.1105957 0.48876953 C-6.74668753 -0.08765371 -3.40132022 -0.0242789 0 0 Z " fill="#FFFFFF" transform="translate(75.828125,26.90234375)"/>
<path d="M0 0 C4.27261528 3.90639112 7.09912213 8.01252577 10 13 C10.54398438 13.86109375 11.08796875 14.7221875 11.6484375 15.609375 C15.43662153 21.90523014 17.28552503 26.66932006 16 34 C14.70006767 39.09573474 13.3600756 44.27984881 11 49 C10.34 49 9.68 49 9 49 C8.73445313 49.70511719 8.46890625 50.41023438 8.1953125 51.13671875 C6.93501033 54.15567786 5.46042006 56.95185076 3.875 59.8125 C3.33617187 60.78832031 2.79734375 61.76414063 2.2421875 62.76953125 C1.83226562 63.50558594 1.42234375 64.24164063 1 65 C0.34 64.67 -0.32 64.34 -1 64 C-1.53515625 62.2421875 -1.53515625 62.2421875 -2.0625 59.875 C-4.8178704 50.26513672 -11.00156303 41.93359651 -16.55078125 33.73046875 C-17.15229004 32.83247559 -17.75379883 31.93448242 -18.37353516 31.00927734 C-19.57043298 29.22987851 -20.78212301 27.46032921 -22.00927734 25.70166016 C-22.55664551 24.88874512 -23.10401367 24.07583008 -23.66796875 23.23828125 C-24.16578857 22.51680908 -24.6636084 21.79533691 -25.17651367 21.05200195 C-26 19 -26 19 -25.4543457 16.94873047 C-23.61134243 14.47922365 -21.67885333 13.21044844 -19.0625 11.58203125 C-17.59683594 10.66067383 -17.59683594 10.66067383 -16.1015625 9.72070312 C-15.07804687 9.09099609 -14.05453125 8.46128906 -13 7.8125 C-11.97648438 7.17119141 -10.95296875 6.52988281 -9.8984375 5.86914062 C-2.51959325 1.25979663 -2.51959325 1.25979663 0 0 Z " fill="#FFFFFF" transform="translate(141,69)"/>
<path d="M0 0 C9.9 0 19.8 0 30 0 C41.1047836 19.8405467 41.1047836 19.8405467 45 28 C44.2575 27.690625 43.515 27.38125 42.75 27.0625 C40.4876042 26.18839253 38.35025921 25.55743327 36 25 C35.28972656 26.07121094 34.57945313 27.14242187 33.84765625 28.24609375 C32.91933146 29.64326945 31.99094274 31.04040267 31.0625 32.4375 C30.59392578 33.14455078 30.12535156 33.85160156 29.64257812 34.58007812 C29.19462891 35.25361328 28.74667969 35.92714844 28.28515625 36.62109375 C27.87144775 37.2442749 27.45773926 37.86745605 27.03149414 38.50952148 C26 40 26 40 25 41 C16.41013565 41.72511842 8.86399084 40.96584807 1.4375 36.4375 C0.963125 35.963125 0.48875 35.48875 0 35 C0 34.34 0 33.68 0 33 C-0.99 32.67 -1.98 32.34 -3 32 C-2.53859792 23.54096188 0.8967362 17.81292209 5.8125 11.0625 C8.19374606 8.35600839 8.19374606 8.35600839 8 6 C6.20753175 4.67381673 6.20753175 4.67381673 4 3.4375 C2.65232501 2.64901654 1.31473966 1.8422551 0 1 C0 0.67 0 0.34 0 0 Z " fill="#FFFFFF" transform="translate(25,72)"/>
<path d="M0 0 C3.61402032 3.76225162 5.87595881 8.21829066 8.25 12.8125 C8.61351562 13.50537109 8.97703125 14.19824219 9.3515625 14.91210938 C10.23916887 16.6055689 11.12025885 18.30244124 12 20 C12.55429688 19.71125 13.10859375 19.4225 13.6796875 19.125 C14.40414062 18.75375 15.12859375 18.3825 15.875 18 C16.59429687 17.62875 17.31359375 17.2575 18.0546875 16.875 C20 16 20 16 22 16 C20.65788025 19.555782 19.07755303 22.79105167 17.1796875 26.08203125 C16.45628174 27.34237183 16.45628174 27.34237183 15.71826172 28.62817383 C15.10998535 29.67900146 14.50170898 30.7298291 13.875 31.8125 C10.966875 36.8553125 10.966875 36.8553125 8 42 C-2.56 42 -13.12 42 -24 42 C-19 38 -19 38 -17 37 C-18.4304953 31.70716739 -21.01207071 27.41592222 -23.85546875 22.78125 C-25.28840843 19.29915768 -25.04716976 17.58962245 -24 14 C-19.35068812 5.03828289 -11.06195112 -4.69924991 0 0 Z " fill="#FFFFFF" transform="translate(117,30)"/>
<path d="M0 0 C0.66 0 1.32 0 2 0 C3.98 6.27 5.96 12.54 8 19 C3.71 19 -0.58 19 -5 19 C-3.64746536 12.54945018 -1.96939767 6.28894321 0 0 Z " fill="#FFFFFF" transform="translate(89,80)"/>
<path d="" fill="#FFFFFF" transform="translate(0,0)"/>
</svg>
